<svg width="463" height="116" viewBox="0 0 463 116" fill="none" xmlns="http://www.w3.org/2000/svg">
<path d="M147.747 96.1147H38.9229L0 63.5474L11.2803 52.2661C15.3052 56.2912 20.8658 58.7808 27.0078 58.7808C39.2913 58.7806 49.249 48.8231 49.249 36.5396C49.249 30.3976 46.7595 24.837 42.7344 20.812L52.4268 11.1206L147.747 96.1147ZM47.0605 74.6372C45.3958 72.9875 42.7247 73.0158 41.0947 74.7007C39.4647 76.3858 39.4934 79.0899 41.1582 80.7397C42.823 82.3893 45.4941 82.3612 47.124 80.6763C48.754 78.9912 48.7254 76.2871 47.0605 74.6372ZM60.3418 60.9077C58.677 59.2579 56.006 59.2861 54.376 60.9712C52.746 62.6563 52.7747 65.3594 54.4395 67.0093C56.1043 68.6591 58.7753 68.6309 60.4053 66.9458C62.0351 65.2607 62.0065 62.5575 60.3418 60.9077ZM73.623 47.1772C71.9582 45.5276 69.2872 45.5567 67.6572 47.2417C66.0276 48.9268 66.056 51.63 67.7207 53.2798C69.3855 54.9295 72.0566 54.9013 73.6865 53.2163C75.3165 51.5312 75.2879 48.8271 73.623 47.1772Z" fill="black"/>
<path d="M228.241 64.1808L242.393 90H226.297L214.089 67.4217H212.145H186.649V90H170.661V14.3789H212.145C232.778 14.3789 241.097 25.8301 241.097 40.9543C241.097 51.2172 237.208 59.8596 228.241 64.1808ZM210.2 28.5308H186.649V53.1617H210.2C220.355 53.1617 225.108 49.3806 225.108 40.9543C225.108 32.4199 220.355 28.5308 210.2 28.5308ZM304.629 66.7735H259.364C260.768 74.8758 265.846 79.6291 275.568 79.6291C281.51 79.6291 286.155 77.7926 288.208 73.2553H303.008C300.739 83.0861 290.801 91.6205 274.596 91.6205C254.503 91.6205 243.7 78.6568 243.7 61.9122C243.7 45.2755 254.719 32.2038 274.596 32.2038C294.15 32.2038 306.249 44.8434 304.629 66.7735ZM274.596 43.7631C265.414 43.7631 260.336 48.6244 259.148 57.3749H289.504C287.884 47.6522 282.914 43.7631 274.596 43.7631ZM299.402 14.3789H371.026V28.5308H343.262V90H327.166V28.5308H299.402V14.3789ZM384.374 24.7498C379.081 24.7498 375.948 21.0767 375.948 16.7555C375.948 12.4343 379.081 8.65327 384.374 8.65327C389.668 8.65327 392.801 12.4343 392.801 16.7555C392.801 21.0767 389.668 24.7498 384.374 24.7498ZM392.152 90H376.596V33.8243H392.152V90ZM414.479 90H396.33L419.449 61.6961L396.762 33.8243H414.803L428.307 50.785L441.703 33.8243H459.852L437.166 61.6961L460.284 90H442.027L428.307 72.4991L414.479 90Z" fill="black"/>
</svg>
