<svg width="148" height="86" viewBox="0 0 148 86" fill="none" xmlns="http://www.w3.org/2000/svg">
<path d="M147.747 85.1147H38.9229L0 52.5474L11.2803 41.2661C15.3052 45.2912 20.8658 47.7808 27.0078 47.7808C39.2913 47.7806 49.249 37.8231 49.249 25.5396C49.249 19.3976 46.7595 13.837 42.7344 9.81201L52.4268 0.120605L147.747 85.1147ZM47.0605 63.6372C45.3958 61.9875 42.7247 62.0158 41.0947 63.7007C39.4647 65.3858 39.4934 68.0899 41.1582 69.7397C42.823 71.3893 45.4941 71.3612 47.124 69.6763C48.754 67.9912 48.7254 65.2871 47.0605 63.6372ZM60.3418 49.9077C58.677 48.2579 56.006 48.2861 54.376 49.9712C52.746 51.6563 52.7747 54.3594 54.4395 56.0093C56.1043 57.6591 58.7753 57.6309 60.4053 55.9458C62.0351 54.2607 62.0065 51.5575 60.3418 49.9077ZM73.623 36.1772C71.9582 34.5276 69.2872 34.5567 67.6572 36.2417C66.0276 37.9268 66.056 40.63 67.7207 42.2798C69.3855 43.9295 72.0566 43.9013 73.6865 42.2163C75.3165 40.5312 75.2879 37.8271 73.623 36.1772Z" fill="black"/>
</svg>
